<svg xmlns="http://www.w3.org/2000/svg" version="1.1" xmlns:xlink="http://www.w3.org/1999/xlink" xmlns:svgjs="http://svgjs.dev/svgjs" width="42" height="49"><svg width="42" height="49" viewBox="0 0 42 49" fill="none" xmlns="http://www.w3.org/2000/svg">
<g clip-path="url(#clip0_291_9)">
<mask id="SvgjsMask1013" style="mask-type:luminance" maskUnits="userSpaceOnUse" x="0" y="0" width="42" height="49">
<path d="M42 0H0V49H42V0Z" fill="white"></path>
</mask>
<g mask="url(#mask0_291_9)">
<path fill-rule="evenodd" clip-rule="evenodd" d="M3.89419 14.528V34.4162L13.4245 40.0249V44.5142L0.00911989 36.6483H0V12.0633L17.2594 2.27541L17.2001 2.24121L21.051 0L25.7819 2.82717V2.97308V10.6087L30.506 13.3834H30.5585V13.4176L35.3145 16.2106V20.709L30.5585 17.916V35.2529L26.6711 37.7176V15.6315L21.8969 12.8317H21.8877V5.02278L21.0875 4.53943L3.89419 14.528ZM41.3792 11.9265H41.3884V36.6414L21.2334 48.3445V48.3537L15.554 45.0454V22.7063L12.7268 29.2384L10.0045 22.9388V35.0113L6.11033 32.8225V15.7432C7.60143 14.9156 9.24757 14.1586 10.4195 13.5727L12.9708 20.9233L15.5563 10.6087L19.4482 8.17826V42.8179L21.2311 43.853L37.4919 34.4162V14.1495L27.9616 8.54078V4.04923L41.3792 11.9265Z" fill="#89C249"></path>
</g>
</g>
<defs>
<clipPath id="SvgjsClipPath1012">
<rect width="42" height="49" fill="white"></rect>
</clipPath>
</defs>
</svg><style>@media (prefers-color-scheme: light) { :root { filter: none; } }
@media (prefers-color-scheme: dark) { :root { filter: none; } }
</style></svg>